<svg width="94" height="24" viewBox="0 0 94 24" fill="none" xmlns="http://www.w3.org/2000/svg">
<path d="M18.4922 8.33013C19.5923 8.33013 20.5701 8.55887 21.4258 9.01636C22.2989 9.45625 22.9799 10.1425 23.4688 11.075C23.9752 12.0076 24.2284 13.2129 24.2284 14.6909V22.8729H19.2518V15.5091C19.2518 14.4886 19.0597 13.7496 18.6755 13.2921C18.2914 12.817 17.7675 12.5795 17.104 12.5795C16.6325 12.5795 16.2047 12.6938 15.8205 12.9226C15.4363 13.1513 15.1395 13.5032 14.9299 13.9783C14.7204 14.4358 14.6156 15.0341 14.6156 15.7731V22.8729H9.63898V15.5091C9.63898 14.4886 9.4469 13.7496 9.06274 13.2921C8.69604 12.817 8.17218 12.5795 7.49116 12.5795C7.00223 12.5795 6.56568 12.6938 6.18152 12.9226C5.81482 13.1513 5.51797 13.5032 5.29096 13.9783C5.08142 14.4358 4.97665 15.0341 4.97665 15.7731V22.8729H0V8.56767H4.74091V12.5531L3.79797 11.4182C4.32183 10.3976 5.03776 9.6322 5.94578 9.12193C6.8538 8.59406 7.86659 8.33013 8.98416 8.33013C10.2589 8.33013 11.3764 8.66444 12.3368 9.33308C13.3147 9.98412 13.9695 11.0047 14.3013 12.3947L12.6774 12.0516C13.1837 10.8903 13.9433 9.98412 14.9561 9.33308C15.9864 8.66444 17.1651 8.33013 18.4922 8.33013Z" fill="white"/>
<path d="M45.8617 8.33013C46.9618 8.33013 47.9397 8.55887 48.7953 9.01636C49.6684 9.45625 50.3494 10.1425 50.8383 11.075C51.3447 12.0076 51.5979 13.2129 51.5979 14.6909V22.8729H46.6213V15.5091C46.6213 14.4886 46.4292 13.7496 46.045 13.2921C45.6609 12.817 45.137 12.5795 44.4735 12.5795C44.002 12.5795 43.5742 12.6938 43.19 12.9226C42.8058 13.1513 42.509 13.5032 42.2995 13.9783C42.0899 14.4358 41.9851 15.0341 41.9851 15.7731V22.8729H37.0085V15.5091C37.0085 14.4886 36.8164 13.7496 36.4322 13.2921C36.0655 12.817 35.5417 12.5795 34.8607 12.5795C34.3717 12.5795 33.9352 12.6938 33.551 12.9226C33.1843 13.1513 32.8875 13.5032 32.6605 13.9783C32.4509 14.4358 32.3462 15.0341 32.3462 15.7731V22.8729H27.3695V8.56767H32.1104V12.5531L31.1675 11.4182C31.6913 10.3976 32.4073 9.6322 33.3153 9.12193C34.2233 8.59406 35.2361 8.33013 36.3537 8.33013C37.6284 8.33013 38.746 8.66444 39.7064 9.33308C40.6842 9.98412 41.339 11.0047 41.6708 12.3947L40.0469 12.0516C40.5533 10.8903 41.3129 9.98412 42.3256 9.33308C43.3559 8.66444 44.5346 8.33013 45.8617 8.33013Z" fill="white"/>
<path d="M54.739 22.8729V8.56767H59.7157V22.8729H54.739ZM57.2273 6.98406C56.3193 6.98406 55.5859 6.72892 55.0271 6.21865C54.4684 5.70838 54.189 5.07494 54.189 4.31833C54.189 3.56171 54.4684 2.92827 55.0271 2.418C55.5859 1.90772 56.3193 1.65259 57.2273 1.65259C58.1354 1.65259 58.8688 1.89893 59.4275 2.3916C59.9863 2.86669 60.2657 3.48253 60.2657 4.23914C60.2657 5.03095 59.9863 5.69078 59.4275 6.21865C58.8862 6.72892 58.1528 6.98406 57.2273 6.98406Z" fill="white"/>
<path d="M79.6868 3.74167C79.6868 3.74167 73.2702 -1.76071 66.8535 2.82461V23C73.2702 18.4147 79.6868 23 79.6868 23M79.6868 3.74167C79.6868 3.74167 86.1035 -1.76071 92.5202 2.82461V23C86.1035 18.4147 79.6868 23 79.6868 23M79.6868 3.74167V23" stroke="white" stroke-width="2" stroke-linecap="round" stroke-linejoin="round"/>
<path d="M69.2988 8.33337C70.3085 7.24698 75.5587 7.24692 77.0396 8.33337" stroke="white" stroke-width="1.5" stroke-linecap="round"/>
<path d="M82.335 8.33337C83.2915 7.24699 88.2654 7.24693 89.6683 8.33337" stroke="white" stroke-width="1.5" stroke-linecap="round"/>
<path d="M69.2988 12.4073C70.3085 11.321 75.5587 11.3209 77.0396 12.4073" stroke="white" stroke-width="1.5" stroke-linecap="round"/>
<path d="M82.335 12.4073C83.2915 11.321 88.2654 11.3209 89.6683 12.4073" stroke="white" stroke-width="1.5" stroke-linecap="round"/>
<path d="M69.2988 16.4816C70.3085 15.3952 75.5587 15.3951 77.0396 16.4816" stroke="white" stroke-width="1.5" stroke-linecap="round"/>
<path d="M82.335 16.4816C83.2915 15.3952 88.2654 15.3951 89.6683 16.4816" stroke="white" stroke-width="1.5" stroke-linecap="round"/>
</svg>
